<svg viewBox="0 0 100 100" fill="#4951f5" xmlns="http://www.w3.org/2000/svg" height="26px" class="text-logo dark:text-white" id="educative-branding-logo"><path d="M83.333 0H16.667C7.46 0 0 7.461 0 16.667v66.659c0 9.206 7.461 16.667 16.66 16.667h66.666c9.206 0 16.674-7.454 16.674-16.66V16.667C100 7.46 92.539 0 83.333 0M22.486 81.56l-7.615-6.97a1.317 1.317 0 0 1-.073-1.855L31.479 54.5a1.31 1.31 0 0 0 .037-1.73L15.919 34.235a1.31 1.31 0 0 1 .161-1.847l7.887-6.648a1.31 1.31 0 0 1 1.847.162L48.71 53.137c.425.506.41 1.246-.037 1.737l-24.34 26.62a1.313 1.313 0 0 1-1.84.073zm63.112-.425a1.31 1.31 0 0 1-1.312 1.311H48.923a1.31 1.31 0 0 1-1.312-1.311v-9.719a1.31 1.31 0 0 1 1.312-1.312h35.363a1.31 1.31 0 0 1 1.312 1.312z"></path></svg>
